<svg xmlns="http://www.w3.org/2000/svg" version="1.1" xmlns:xlink="http://www.w3.org/1999/xlink" xmlns:svgjs="http://svgjs.dev/svgjs" width="1500" height="1342" viewBox="0 0 1500 1342"><g transform="matrix(1,0,0,1,-2.4732092128703016,-2.163516869448131)"><svg viewBox="0 0 277 248" data-background-color="#ffffff" preserveAspectRatio="xMidYMid meet" height="1342" width="1500" xmlns="http://www.w3.org/2000/svg" xmlns:xlink="http://www.w3.org/1999/xlink"><g id="tight-bounds" transform="matrix(1,0,0,1,0.456719301310045,0.40002634420794436)"><svg viewBox="0 0 276.0865613973799 247.19999999999996" height="247.19999999999996" width="276.0865613973799"><g><svg viewBox="0 0 276.0865613973799 247.19999999999996" height="247.19999999999996" width="276.0865613973799"><g><svg viewBox="0 0 276.0865613973799 247.19999999999996" height="247.19999999999996" width="276.0865613973799"><g id="textblocktransform"><svg viewBox="0 0 276.0865613973799 247.19999999999996" height="247.19999999999996" width="276.0865613973799" id="textblock"><g><svg viewBox="0 0 276.0865613973799 247.19999999999996" height="247.19999999999996" width="276.0865613973799"><path d="M275.44 53.02C274.142 27.36 270.443 20.227 270.443 20.227 259.086-6.202 244.913-0.506 232.18 3.292 209.699 3.446 187.31 9.091 164.881 12.119 117.805 12.581 70.326 4.986 23.484 23.717 19.084 29.464-4.565 24.846 0.783 56.304 2.184 69.39 7.298 83.913 7.143 95.922 7.843 98.026 8.817 93.202 9.232 96.23 10.686 104.39 13.061 100.541 15.008 105.365 12.295 118.246 14.242 128.971 16.098 140.21 12.828 143.135 8.635 141.749 6.753 151.449 6.558 158.479 5.507 157.145 4.352 156.837 3.508 156.632 1.808 157.402 2.094 159.608 3.067 167.152-1.112 171.514 1.509 178.904-0.295 186.91 2.756 193.838 2.34 202.511 2.288 204.255 2.574 205.744 3.028 206.154 5.04 208.361 2.107 212.672 2.418 217.342 23.055 249.262 45.445 227.195 66.588 241.872 72.079 231.608 67.951 245.516 70.145 243.36 71.858 240.846 73.104 251.263 75.038 245.362 75.336 243.668 74.882 239.665 75.946 240.435 76.505 240.846 76.998 240.743 77.076 238.382 77.193 234.841 76.167 237.048 75.895 235.201 78.841 225.861 78.114 248.081 80.879 247.158 80.749 244.438 79.944 240.538 81.593 241.051 83.228 237.151 83.28 233.918 84.734 242.693 84.785 244.592 85.045 245.926 85.46 246.85 90.003 237.305 94.52 250.237 99.283 245.926 102.204 241.205 105.007 248.492 107.967 246.696 109.005 245.259 110.056 242.693 111.056 247.004 123.295 247.928 136.34 244.079 147.943 247.158 178.951 241.41 212.088 249.518 244.783 241.923 252.493 238.998 260.501 234.841 268.016 231.506 268.016 231.506 274.103 222.371 274.103 181.316S275.401 145.393 275.596 112.703C275.791 80.013 276.699 78.679 275.401 53.02Z" opacity="1" fill="#ee3e38" data-fill-palette-color="tertiary"></path><g transform="matrix(1,0,0,1,55.76832,26.230666666666668)"><svg width="164.5499213973799" viewBox="0.81 -33.54 28.34 33.54" height="194.73866666666663" data-palette-color="#ffffff"><path d="M29.15-33.54L29.15-25.56 26.2-25.56 25.49-30.25Q25.32-31.1 24.66-31.1L24.66-31.1 17.5-31.1 17.5-3.44Q17.5-3.08 17.76-2.73 18.02-2.39 18.55-2.34L18.55-2.34 21.75-2.15 21.75 0 8.2 0 8.2-2.15 11.4-2.34Q11.94-2.39 12.19-2.73 12.45-3.08 12.45-3.44L12.45-3.44 12.45-31.1 5.25-31.1Q4.52-31.1 4.39-30.25L4.39-30.25 3.71-25.56 0.81-25.56 0.81-33.54 29.15-33.54Z" opacity="1" transform="matrix(1,0,0,1,0,0)" fill="#ffffff" class="wordmark-text-0" data-fill-palette-color="quaternary" id="text-0"></path></svg></g></svg></g></svg></g></svg></g><g></g></svg></g><defs></defs></svg><rect width="276.0865613973799" height="247.19999999999996" fill="none" stroke="none" visibility="hidden"></rect></g></svg></g></svg>